<svg width="526" height="254" viewBox="0 0 526 254" fill="none" xmlns="http://www.w3.org/2000/svg">
<g clip-path="url(#clip0_1263_2)">
<path d="M108.497 139.963C108.497 143.079 108.681 146.011 108.497 147.844C108.497 163.239 108.497 163.605 108.497 179.183C101.9 179.183 93.6524 179.183 86.8713 179.183C86.8713 165.071 86.8713 161.406 86.8713 147.477C86.8713 133.915 85.4051 124.385 77.3411 117.97C68.9105 111.372 45.0851 111.556 35.9215 126.401C33.9055 129.7 31.7062 136.297 31.5229 148.76C31.5229 161.039 31.7062 166.721 31.7062 179.183H9.89673C9.89673 163.605 9.89673 80.5825 9.89673 49.6095H30.7898C30.7898 61.3389 30.7898 111.739 30.7898 114.671C30.7898 114.671 32.9891 109.356 42.5193 103.125C55.1651 94.6945 80.2735 94.1447 95.1186 106.607C105.382 115.404 108.497 130.249 108.497 139.963Z" fill="black"/>
<path d="M250.647 98.1767C281.071 98.1767 305.629 112.655 305.629 139.78C305.629 166.354 281.071 181.566 250.647 181.566C220.407 181.566 195.849 166.354 195.849 139.78C195.849 113.022 220.407 98.1767 250.647 98.1767ZM250.464 164.888C271.174 164.888 283.82 153.159 283.636 139.23C283.453 124.751 270.991 113.755 250.281 113.755C229.571 113.755 216.742 124.385 217.292 139.23C217.841 153.159 231.587 164.888 250.464 164.888Z" fill="black"/>
<path d="M409.617 150.043C411.083 157.007 408.7 166.171 401.003 172.219C385.975 183.948 346.937 184.498 324.028 171.119C317.797 167.454 315.598 164.521 315.598 164.521L329.343 152.242C329.343 152.242 333.742 157.007 343.639 160.673C359.033 166.537 391.839 165.988 389.273 153.525C387.991 147.477 370.03 146.927 359.583 145.644C344.921 143.812 333.192 142.529 324.578 134.281C317.064 127.317 317.614 118.153 320.546 112.105C323.662 105.874 328.793 100.376 341.256 97.4436C372.962 90.4793 396.788 102.025 406.684 109.723L394.222 123.652C394.222 123.652 383.592 113.755 365.081 112.472C352.802 111.556 342.905 112.472 340.156 117.054C338.507 119.62 339.057 124.751 350.053 126.767C365.631 129.516 385.058 130.433 394.222 134.281C404.302 138.497 407.784 142.529 409.617 150.043Z" fill="black"/>
<path d="M517.617 150.043C519.083 157.007 516.7 166.171 509.003 172.219C493.975 183.948 454.937 184.498 432.028 171.119C425.797 167.454 423.598 164.521 423.598 164.521L437.343 152.242C437.343 152.242 441.742 157.007 451.639 160.673C467.033 166.537 499.839 165.988 497.273 153.525C495.991 147.477 478.03 146.927 467.583 145.644C452.921 143.812 441.192 142.529 432.578 134.281C425.064 127.317 425.614 118.153 428.546 112.105C431.662 105.874 436.793 100.376 449.256 97.4436C480.962 90.4793 504.788 102.025 514.684 109.723L502.222 123.652C502.222 123.652 491.592 113.755 473.081 112.472C460.802 111.556 450.905 112.472 448.156 117.054C446.507 119.62 447.057 124.751 458.053 126.767C473.631 129.516 493.058 130.433 502.222 134.281C512.302 138.497 515.784 142.529 517.617 150.043Z" fill="black"/>
<path d="M224.953 215.311H91.8967V199.55H224.953V215.311Z" fill="black"/>
</g>
<defs>
<clipPath id="clip0_1263_2">
<rect width="526" height="254" fill="white"/>
</clipPath>
</defs>
</svg>
